# xmcd
#
# Track frame offsets:
#	150
#	16912
#	28600
#	40985
#	57087
#	82307
#	101475
#	118662
#	135200
#	153855
#	174105
#	193190
#	215700
#	236672
#
# Disc length: 3349 seconds
#
# Revision: 0
# Processed by: cddbd v1.4PL0 Copyright (c) Steve Scherf et al.
# Submitted via: EasyCDDAExtractor 4.6.0.1
#
DISCID=b40d130e
DTITLE=The Iowa Blues - Iowa Blues Various
DYEAR=1994
DGENRE=Blues
TTITLE0=Catfish Keith - Mr Catfish's Advice
TTITLE1=Joe Price - Bad Luck, Blues and Trouble
TTITLE2=Dennis Daddy-O McMurrin - Bust Out
TTITLE3=The Blue Band - Too Close to the Fire
TTITLE4=Patrick Hazell - Walkin' on a Tightrope
TTITLE5=The Janeys - But a Good Song
TTITLE6=Divin' Duck - It'll Come Back on You
TTITLE7=The Ellis Kell Band - Hell Train
TTITLE8=Pena Brothers Band - Runs in the Blood
TTITLE9=Bob Pace - Midnight Calls Her Own
TTITLE10=R H Blues Factor - One with the Blues
TTITLE11=The Blues Instigators - Save a Drowning Man
TTITLE12=Al E Gator and the Words - My Way or the Highway
TTITLE13=Rob Lumbard - Memories of You
EXTD=
EXTT0=
EXTT1=
EXTT2=
EXTT3=
EXTT4=
EXTT5=
EXTT6=
EXTT7=
EXTT8=
EXTT9=
EXTT10=
EXTT11=
EXTT12=
EXTT13=
PLAYORDER=
